<svg xmlns="http://www.w3.org/2000/svg" viewBox="0 0 512 512">
  <defs>
    <linearGradient id="bg" x1="84" y1="60" x2="428" y2="452" gradientUnits="userSpaceOnUse">
      <stop stop-color="#83E2D8"/>
      <stop offset="1" stop-color="#42A99F"/>
    </linearGradient>
  </defs>
  <rect width="512" height="512" rx="116" fill="#111516"/>
  <rect x="62" y="62" width="388" height="388" rx="104" fill="url(#bg)"/>
  <path d="M334 190c-18-28-45-42-80-42-63 0-108 46-108 110 0 65 44 108 109 108 34 0 65-10 88-28v-91h-96v48h42v16c-9 5-20 7-32 7-34 0-56-24-56-61 0-36 23-61 56-61 18 0 33 7 44 22l33-28Z" fill="#102322"/>
  <path d="m335 129 19 19 38-39" fill="none" stroke="#102322" stroke-linecap="round" stroke-linejoin="round" stroke-width="18"/>
</svg>
